<?xml version="1.0" encoding="UTF-8"?>
<svg id="Layer_1" xmlns="http://www.w3.org/2000/svg" version="1.1" xmlns:xlink="http://www.w3.org/1999/xlink" viewBox="120 350 1400 340">
  <defs>
    <style>
      .st0 {
        fill: #0751f1;
      }

      .st1, .st2 {
        fill: #ffffff;
      }

      .st3 {
        font-size: 199.51px;
        letter-spacing: -.03em;
      }

      .st3, .st2 {
        font-family: Inter-SemiBold, Inter;
        font-weight: 600;
      }

      .st2 {
        font-size: 40.24px;
        letter-spacing: .25em;
        opacity: .65;
      }

      .st4 {
        fill: url(#linear-gradient);
      }
    </style>
    <linearGradient id="linear-gradient" x1="255.27" y1="576.85" x2="411.17" y2="420.95" gradientUnits="userSpaceOnUse">
      <stop offset="0" stop-color="#0846dd"/>
      <stop offset="1" stop-color="#2970f8"/>
    </linearGradient>
  </defs>
  <path class="st1" d="M266.93,664.84c-.82,0-1.54-.59-1.7-1.39l-5.94-29.44c-.69-3.44-3.2-6.25-6.53-7.33-5.42-1.76-18.67-6.21-24.46-9.45-1.46-.82-3.11-1.25-4.77-1.25-1.97,0-3.88.59-5.5,1.71l-24.18,16.62c-.37.25-.73.3-.98.3-.47,0-.91-.19-1.24-.53l-33.62-34.44c-.58-.59-.66-1.52-.19-2.2l16.21-23.44c2.33-3.37,2.3-7.86-.08-11.17-4.22-5.86-7.16-12.88-9.01-21.44-.78-3.62-3.48-6.46-7.05-7.39l-28.59-7.47c-.76-.2-1.3-.89-1.3-1.68v-46.33c0-.82.56-1.52,1.36-1.7l29.11-6.44c3.53-.78,6.33-3.44,7.28-6.94,2.57-9.35,5.69-16.97,9.29-22.63,2.1-3.3,2.03-7.52-.18-10.74l-17.3-25.18c-.48-.7-.39-1.64.22-2.23l33.21-32.12c.33-.31.76-.49,1.21-.49.33,0,.66.1.94.28l25.7,16.52c1.57,1.01,3.4,1.55,5.27,1.55,1.34,0,2.65-.27,3.88-.81l24.51-10.66c3-1.3,5.13-4,5.7-7.22l5.17-28.94c.15-.83.87-1.43,1.71-1.43h49.39c.84,0,1.56.6,1.71,1.42l5.42,29.41c.62,3.39,3.02,6.22,6.26,7.39l7.78,2.82c-7.93,5.05-15.27,11.42-21.91,19-.32.37-.78.58-1.26.58-.09,0-.19,0-.28-.02-8.7-1.52-17.14-2.29-25.08-2.29-40.13,0-70.71,19.57-90.87,58.16-.11.21-.22.43-.31.65-17.26,38.83-12.96,77.15,12.78,113.91.15.21.3.41.46.61,25.41,31.49,55.84,47.46,90.43,47.46,2.69,0,5.45-.1,8.2-.29.28-.02.55-.05.82-.09,26.94-3.93,50.07-14.85,68.74-32.46l45.64-46.29,5.78-5.78c-3.46,9.97-8.55,20.1-15.23,30.26-2.03,3.08-2.11,7.14-.21,10.32l13.86,23.18c.41.68.3,1.56-.26,2.12l-33.54,33.54c-.33.33-.76.51-1.23.51-.33,0-.66-.1-.94-.28l-25.4-16.33c-1.57-1.01-3.39-1.54-5.26-1.54-1.54,0-3.08.37-4.45,1.07-7.19,3.67-16.3,7.35-27.1,10.95-3.34,1.11-5.83,3.96-6.48,7.43l-5.38,28.68c-.15.82-.87,1.41-1.71,1.41h-48.53Z"/>
  <path class="st4" d="M407.83,419.18c-3.34-1.62-6.69-1.75-10.29-1.77-6.44-.08-19.06-.21-29.78-.18-11.49-.12-21.09.33-31.41,4.32-4.09,1.61-6.76,3.31-10.78,5.59-4.02,2.28-70.34,69.71-95.95,95.08-5.27,4.78-7.77,8.31-7.02,15.49,1.31,10.28,11.79,17.72,18.64,24.79l.11.1c6.16,5.99,14.51,12.4,21.53,16.74,5.41,3.45,9.93,4.69,15.91,6.04,20.68,5.12,44.53-2.42,63.72-16.59,3.7-2.63,6.47-5.09,9.66-8.4,11.94-12.03,29.09-29.38,40.57-40.89,7.24-6.83,13.63-14.69,17.28-24.09,1.97-4.91,1.87-9.6,2.61-14.9,1.33-12.76,3.13-27.92,3.28-41.15.11-8.88.95-16.23-8.07-20.17ZM261.91,540.81c-2.4,2.4-6.32,2.36-8.67-.13s-2.03-6.25.31-8.58c8.36-8.36,37.77-37.77,46.12-46.12,2.34-2.34,6.18-2.57,8.58-.31s2.54,6.27.13,8.67l-46.48,46.48ZM272.43,559.86c-2.27-2.41-2.03-6.25.31-8.58,7.02-7.02,28.61-28.61,35.63-35.63,2.34-2.34,6.18-2.57,8.58-.31s2.54,6.27.13,8.67l-35.98,35.98c-2.4,2.4-6.32,2.36-8.67-.13ZM335.69,544.4l-34.91,34.91c-2.34,2.34-6.18,2.58-8.59.31s-2.54-6.27-.13-8.67l34.91-34.91c2.34-2.34,6.18-2.58,8.59-.31s2.54,6.27.13,8.67ZM377.89,472.92c-11.08,1.1-20.32-8.14-19.22-19.22.81-8.2,7.45-14.84,15.65-15.65,11.08-1.1,20.32,8.14,19.22,19.22-.81,8.2-7.45,14.84-15.65,15.65Z"/>
  <text class="st3" transform="translate(488.71 552.37)"><tspan class="st1" x="0" y="0">Part</tspan><tspan class="st0" x="374.02" y="0">Lister</tspan></text>
  <text class="st2" transform="translate(505.26 626.78)"><tspan x="0" y="0">LIST SMART. SELL MORE.</tspan></text>
</svg>
